<?xml version="1.0" ?><svg id="Developer" style="enable-background:new 0 0 1000 1000;" version="1.1" viewBox="0 0 1000 1000" xml:space="preserve" xmlns="http://www.w3.org/2000/svg" xmlns:xlink="http://www.w3.org/1999/xlink"><style type="text/css">
	.st0{fill:#F77370;}
	.st1{fill:#323232;}
	.st2{fill:#FFFFFF;}
	.st3{fill:#CF9E97;}
	.st4{fill:#AF5D45;}
	.st5{fill:#FFAB93;}
	.st6{fill:#7E875C;}
	.st7{fill:none;stroke:#231F20;stroke-width:4;stroke-linecap:round;stroke-linejoin:round;stroke-miterlimit:10;}
</style><g id="t-shirt"><path class="st0" d="M285.13,717.2c1.07-1.06,2.01-2.34,2.77-3.81C287.15,714.86,286.2,716.15,285.13,717.2z"/><path class="st0" d="M940.42,829.43H740.99l-0.16-57.91l-0.01-4l-0.06-22.71l-0.01-2c-0.5,0.44-1.01,0.88-1.52,1.33   c-3.11,2.72-6.37,5.53-9.76,8.43c-9.49,8.11-18.6,15.76-27.36,22.97h-0.01c-11.67-90.58-75.19-110.18-92.83-113.9   c0.17-0.23,0.34-0.46,0.5-0.69c0.3-0.41,0.6-0.82,0.9-1.23c0.99-1.34,1.96-2.68,2.92-4c14.96-20.7,28.78-42.19,41.37-64.41   c5.07-8.94,9.94-18,14.6-27.17c2.85-5.61,5.96-11.11,9.26-16.51c0.75-1.25,1.51-2.48,2.3-3.71c3.37-5.37,6.92-10.64,10.57-15.78   c3.69-5.24,7.55-10.39,11.62-15.38c8.08-9.97,16.95-19.33,26.73-27.65c0.45-0.38,0.9-0.76,1.35-1.12   c17.63-14.69,36.03-23.72,55.59-22.26c9.96,0.75,20.23,4.22,30.84,11.04c27.22,17.5,48.2,42.93,64.51,71.15   c0.73,1.24,1.44,2.49,2.13,3.74c9.79,17.48,17.83,35.92,24.51,54.13c6.47,17.62,11.66,35.65,15.81,53.93c0.31,1.33,0.61,2.67,0.9,4   c7.06,32.29,10.99,65.32,13.17,98.22c0.21,3.19,0.41,6.38,0.58,9.58c0.08,1.33,0.15,2.66,0.21,4c0.1,1.72,0.18,3.45,0.26,5.18   C940.1,781.09,941.35,829.43,940.42,829.43z"/><path class="st1" d="M740.74,744.81c-0.46,0-0.92-0.16-1.29-0.47c-0.84-0.71-0.95-1.98-0.23-2.82l48.83-57.69   c0.71-0.84,1.97-0.95,2.82-0.23c0.84,0.71,0.95,1.98,0.23,2.82l-48.83,57.69C741.88,744.57,741.31,744.81,740.74,744.81z"/><path class="st2" d="M883.48,547.92H679.85c-1.1,0-2-0.9-2-2s0.9-2,2-2h203.63c1.1,0,2,0.9,2,2S884.58,547.92,883.48,547.92z"/><path class="st2" d="M926.08,659.72H609.26c-1.1,0-2-0.9-2-2s0.9-2,2-2h316.81c1.1,0,2,0.9,2,2S927.18,659.72,926.08,659.72z"/><path class="st2" d="M939.89,771.52H740.75c-1.1,0-2-0.9-2-2s0.9-2,2-2H939.9c1.1,0,2,0.9,2,2S941,771.52,939.89,771.52z"/></g><g id="keyboard"><path class="st3" d="M129.63,787.36l292.69-195.87c0.54-0.36,1.18-0.56,1.83-0.56h83.56c2.99,0,4.43,3.65,2.25,5.7L300.79,792.5   c-0.61,0.57-1.41,0.89-2.25,0.89H131.46C128.21,793.38,126.93,789.17,129.63,787.36z"/></g><g id="head"><path class="st4" d="M786.97,461.73c-19.56-1.46-37.96,7.57-55.59,22.26c-0.45,0.36-0.9,0.74-1.35,1.12   c-9.78,8.32-18.65,17.68-26.73,27.65l-20.08-48.24l-0.05-0.11l-9.24-22.18l-0.49-1.19c-9.51,10.47-33.5,30.54-65.31,11.5   c-13.25-7.93-23.37-20.16-29.27-34.44c-2.8-6.76-5.49-14.93-6.71-23.46c-1.03,0.34-2.13,0.52-3.28,0.52   c-5.82,0-10.54-4.72-10.54-10.54c0-4.46,2.77-8.27,6.69-9.81c-2.43-13.59-8.97-60.22,7.31-97.51   c5.97-13.68,15.02-26.11,28.47-35.18c55.9-37.73,108.73,9.32,119.92,42.64c0.6,0.03,1.2,0.07,1.8,0.12   c1.02,0.09,2.03,0.22,3.02,0.39c0.3,0.05,0.6,0.1,0.89,0.16c0.17,0.03,0.34,0.07,0.5,0.1c0.3,0.06,0.6,0.12,0.89,0.2   c0.07,0.01,0.13,0.02,0.2,0.04c1.21,0.28,2.39,0.62,3.55,1.02c0.31,0.1,0.61,0.21,0.91,0.32c1.52,0.55,3,1.2,4.42,1.93   c0.27,0.14,0.54,0.28,0.81,0.43c2.24,1.21,4.34,2.64,6.29,4.24c1.94,1.6,3.72,3.39,5.32,5.33c0.2,0.25,0.4,0.49,0.6,0.74l0.57,0.75   c0.19,0.25,0.38,0.51,0.56,0.77c0.21,0.29,0.41,0.58,0.61,0.88c0.15,0.23,0.3,0.46,0.45,0.69c0.17,0.26,0.34,0.53,0.5,0.8   c0.42,0.69,0.82,1.39,1.19,2.1c0.12,0.22,0.23,0.44,0.34,0.66c0.1,0.19,0.19,0.39,0.29,0.59c0.14,0.28,0.27,0.57,0.4,0.86   c0.4,0.87,0.76,1.76,1.09,2.67c0.11,0.3,0.22,0.6,0.32,0.91c0.09,0.24,0.17,0.49,0.24,0.73c0.22,0.68,0.41,1.36,0.59,2.05   c0.08,0.32,0.16,0.63,0.23,0.95c0.07,0.3,0.14,0.6,0.2,0.9c0.28,1.37,0.49,2.76,0.63,4.18c0.03,0.29,0.05,0.57,0.07,0.86   c0.07,0.97,0.11,1.96,0.11,2.95c0,0.5-0.01,0.99-0.03,1.48c-0.02,0.5-0.04,0.99-0.08,1.47c-0.03,0.36-0.06,0.72-0.09,1.07   c-0.01,0.06-0.01,0.11-0.02,0.16c-0.03,0.28-0.06,0.56-0.1,0.83c-0.04,0.33-0.08,0.66-0.13,0.98c-0.07,0.43-0.14,0.86-0.22,1.28   c-0.18,0.94-0.38,1.87-0.63,2.79c-0.12,0.46-0.25,0.92-0.39,1.37c-0.12,0.4-0.25,0.8-0.38,1.19c-0.2,0.61-0.42,1.22-0.66,1.81   c-0.13,0.33-0.26,0.65-0.4,0.97c-0.56,1.31-1.18,2.59-1.87,3.82c-0.22,0.38-0.44,0.75-0.66,1.13c-0.24,0.4-0.49,0.79-0.75,1.18   c-0.25,0.39-0.51,0.77-0.78,1.15c-0.02,0.04-0.05,0.07-0.07,0.1c-0.24,0.34-0.49,0.68-0.75,1.01c-0.27,0.37-0.56,0.73-0.84,1.08   c-0.24,0.3-0.49,0.6-0.75,0.89c-0.2,0.24-0.41,0.47-0.63,0.7c-0.21,0.24-0.42,0.47-0.64,0.69c-0.46,0.49-0.93,0.96-1.42,1.42   c-0.2,0.19-0.4,0.38-0.61,0.56c-1.28,1.17-2.64,2.25-4.07,3.24c-0.33,0.24-0.67,0.46-1,0.67c-0.07,0.06-0.15,0.11-0.24,0.16   c-0.36,0.23-0.71,0.45-1.08,0.66c-0.38,0.23-0.76,0.45-1.15,0.66c-0.05,0.03-0.1,0.06-0.16,0.09c-0.37,0.2-0.75,0.4-1.13,0.59   c-0.42,0.21-0.84,0.41-1.26,0.6L786.97,461.73z"/><path class="st1" d="M673.44,443.04c-0.44,0-0.89-0.15-1.26-0.45c-0.86-0.7-0.99-1.96-0.29-2.81c0.11-0.14,11.17-13.93,12.38-30.3   c0.08-1.1,1.03-1.93,2.14-1.85c1.1,0.08,1.93,1.04,1.85,2.14c-1.3,17.66-12.77,31.94-13.26,32.54   C674.6,442.79,674.02,443.04,673.44,443.04z"/></g><g id="arms"><path class="st4" d="M656.97,590.93l-0.39,0.96c-0.11,0.25-0.21,0.5-0.31,0.76c0,0-17.83,28.86-42.68,63.07   c-0.96,1.32-1.93,2.66-2.92,4c-0.3,0.41-0.6,0.82-0.9,1.23c-0.17,0.23-0.34,0.46-0.51,0.69c-1.15,1.56-2.32,3.13-3.49,4.71   c-0.18,0.23-0.36,0.47-0.53,0.71c-1.02,1.36-2.05,2.73-3.09,4.1c-0.09,0.12-0.18,0.24-0.26,0.35h-0.01   c-0.17,0.23-0.35,0.47-0.52,0.7c-0.78,1.03-1.56,2.05-2.35,3.08c-0.53,0.69-1.06,1.38-1.59,2.07c-0.42,0.54-0.84,1.09-1.25,1.63   h-0.01c-0.11,0.15-0.22,0.29-0.33,0.43c-0.54,0.69-1.07,1.38-1.61,2.07c-116.42-10.85-173.78-0.66-191.65,3.71   c-0.71,0.17-1.36,0.33-1.94,0.49h-0.01c-3.24-3.75-7.33-8.28-11.85-12.78c-0.5-0.51-1.01-1.01-1.52-1.51   c-1.02-1-2.06-1.99-3.12-2.97c0,0-0.01,0.01-0.01,0c-1.05-0.98-2.12-1.94-3.2-2.88c-1.08-0.93-2.17-1.85-3.27-2.75   c0.65-0.2,1.4-0.42,2.22-0.68c10.42-3.23,32.55-11.08,23.1-16.78c-9.4-5.67-26.9,4.13-34.44,8.93c-0.63,0.4-1.19,0.76-1.67,1.09   h-0.01c-0.36-0.19-0.72-0.38-1.07-0.56c-4.5-2.29-9.67-2.87-14.57-1.79c-0.68,0.14-1.35,0.32-2.01,0.53   c-0.59,0.19-1.23,0.38-1.91,0.58c-5.04,1.46-12.2,3-19.03,2.64c-0.06-0.64-0.1-1.3-0.12-1.99c-0.37-11.03,3.95-28.11,27.38-45.36   c27.76-20.43,81.56,1,102.53,11.48c6.85,3.42,14.61,4.51,22.13,3.1l174.78-32.68L656.97,590.93z"/><path class="st4" d="M702.1,775.54c-109.3,90-163.84,111.22-213.34,91.57c-2.51-1-5.06-2.15-7.66-3.44   c-0.86-0.43-1.73-0.87-2.6-1.33c-0.88-0.46-1.76-0.94-2.65-1.43c-0.88-0.49-1.76-0.99-2.65-1.51h-0.01   c-2.22-1.3-4.46-2.67-6.72-4.12h-0.01c-0.9-0.59-1.8-1.18-2.71-1.78c-1.82-1.21-3.65-2.47-5.48-3.77c-0.91-0.65-1.82-1.3-2.74-1.97   c-0.46-0.33-0.92-0.67-1.39-1.01c-2.29-1.7-4.59-3.45-6.88-5.24c-1.38-1.08-2.77-2.18-4.15-3.29c-0.91-0.75-1.82-1.49-2.74-2.24   c-2.75-2.26-5.49-4.58-8.21-6.94c-0.9-0.79-1.8-1.58-2.7-2.37c-2.7-2.37-5.38-4.79-8.03-7.22c-0.87-0.81-1.75-1.62-2.62-2.43   c-2.61-2.43-5.2-4.88-7.73-7.33c-0.84-0.82-1.68-1.62-2.51-2.43c-2.08-2.02-4.12-4.04-6.13-6.05c-1.2-1.21-2.39-2.4-3.56-3.59   c-1.17-1.18-2.32-2.36-3.46-3.53c-0.38-0.39-0.76-0.77-1.13-1.16c-2.99-3.09-5.86-6.1-8.58-8.99c-0.68-0.72-1.35-1.44-2.01-2.15   c-0.33-0.35-0.66-0.7-0.98-1.05c-1.3-1.4-2.55-2.76-3.77-4.08c-0.61-0.66-1.2-1.32-1.79-1.96s-1.16-1.27-1.72-1.89   s-1.11-1.23-1.65-1.83c-0.54-0.59-1.07-1.18-1.58-1.75c-1.03-1.15-2-2.25-2.93-3.29c-0.46-0.53-0.91-1.03-1.35-1.53   c-0.87-0.99-1.69-1.92-2.45-2.79c-2.28-2.62-4.04-4.68-5.21-6.05c-0.48-0.57-0.86-1.02-1.14-1.35c-0.06-0.06-0.11-0.12-0.15-0.18   c-0.14-0.17-0.24-0.29-0.29-0.34c-0.03-0.05-0.05-0.07-0.05-0.07h-0.01c-7.45-0.22-14.41-1.61-20.82-3.76   c-1.16-0.39-2.31-0.81-3.43-1.24c-0.01,0-0.01,0-0.01,0c-1.69-0.66-3.34-1.37-4.95-2.12c-0.54-0.24-1.08-0.5-1.61-0.76   c-2.63-1.3-5.14-2.71-7.54-4.19c-0.48-0.29-0.96-0.59-1.43-0.9c-0.93-0.6-1.85-1.22-2.75-1.83c-0.9-0.62-1.78-1.25-2.64-1.89   c-1.71-1.28-3.34-2.57-4.89-3.86c-4.27-3.55-7.9-7.13-10.84-10.32c-1.87-2.03-3.46-3.9-4.77-5.51c-0.74-0.92-1.39-1.75-1.95-2.48   c-0.45-0.6-0.84-1.13-1.16-1.58c0.86-0.6,1.12-1.77,0.56-2.68l-5.59-9.11c-0.58-0.94-1.81-1.24-2.75-0.66s-1.24,1.81-0.66,2.75   l5.59,9.11c0.22,0.37,0.55,0.63,0.91,0.79c-0.76,1.47-1.7,2.75-2.77,3.81c-3.73,3.73-8.95,4.71-12.48,1.36   c-2.15-2.06-3.67-5.73-3.83-11.38c-0.31-11.18,4.24-17.88,7.91-21.44c1.04-1.01,2-1.76,2.77-2.29c0.54,0.89,1.68,1.22,2.61,0.74   c0.08-0.04,7.86-3.84,15.94,5.91c0.39,0.47,0.97,0.72,1.54,0.72c0.45,0,0.9-0.15,1.28-0.45c0.85-0.71,0.96-1.97,0.26-2.82   c-5.2-6.28-10.51-7.87-14.05-8.09c-3.57-0.23-6.08,0.83-6.67,1.11l-0.89-2.03c-1.21-2.77-1.49-5.91-0.52-8.77   c0.61-1.79,1.54-3.15,2.63-4.18c2.95-2.77,7.09-3.15,9.5-3.11c0,0,0,0,0,0.01c-0.01,0.14-0.01,0.28,0.01,0.42   c0.15,1.1,1.16,1.86,2.25,1.71c0.4-0.05,9.86-1.2,18.17,8.25c0.39,0.45,0.94,0.68,1.5,0.68c0.47,0,0.94-0.16,1.33-0.5   c0.83-0.73,0.91-1.99,0.18-2.82c-8.34-9.5-17.9-9.81-20.84-9.65c0.83-2.42,1.92-4.21,3.23-5.5c5.49-5.42,14.81-2.01,25.26,0.76   c1.31,0.35,2.67,0.59,4.05,0.75c-0.01,0.05-0.01,0.1-0.01,0.15c-0.01,1.1,0.88,2.01,1.98,2.02h0.56c2.55,0,5.28-0.21,8.74-0.68   c3.25-0.44,6.49-1.07,9.64-1.87c0.61-0.16,1.21-0.32,1.81-0.48c2.62-0.7,5.09-1.37,7.7-1.38h0.1c2.54,0,6.09,0.46,8.83,2.59   c0.88,0.68,2.13,0.52,2.81-0.35c0.06-0.07,0.11-0.15,0.15-0.23c2.1,1.25,4.24,2.72,6.36,4.32c0.39,0.29,0.77,0.59,1.15,0.89   c-0.66,0.82-0.56,2.02,0.23,2.73c5.43,4.83,20.08,18.29,22.6,22.43c0.38,0.62,1.03,0.96,1.71,0.96c0.35,0,0.71-0.09,1.04-0.28   c0.1-0.06,0.2-0.13,0.28-0.22c1.71,1.94,3.5,3.81,5.36,5.62c3.76,3.67,7.79,7.07,12.03,10.18l82.79,60.71   c-0.64,0.86-0.49,2.08,0.36,2.75l23.09,18.33c0.36,0.29,0.8,0.43,1.24,0.43c0.59,0,1.17-0.26,1.57-0.75   c0.69-0.87,0.55-2.12-0.32-2.81L506,764.13c13.43-4.84,28.89-16.94,44.67-32.58c1.47-1.46,2.94-2.95,4.41-4.46   c3.94-4.05,7.88-8.3,11.8-12.69c0.98-1.1,1.96-2.2,2.94-3.32c2.45-2.78,4.89-5.62,7.31-8.49c0.97-1.15,1.93-2.3,2.9-3.46   c2.41-2.9,4.8-5.82,7.17-8.77c0.95-1.18,1.89-2.36,2.83-3.54c1.41-1.77,2.81-3.55,4.2-5.33c0.54-0.69,1.07-1.38,1.6-2.07   c0.12-0.14,0.23-0.28,0.34-0.43c0.41-0.54,0.83-1.09,1.25-1.63c0.54-0.69,1.07-1.38,1.59-2.07c0.79-1.03,1.57-2.05,2.35-3.08   c0.18-0.23,0.36-0.46,0.53-0.7c0.08-0.11,0.17-0.23,0.26-0.35c1.05-1.37,2.08-2.74,3.09-4.1c0.18-0.24,0.36-0.48,0.53-0.71   c1.18-1.58,2.35-3.15,3.5-4.71C626.91,665.36,690.43,684.96,702.1,775.54z"/><path class="st4" d="M276.73,685.74c-3.67,3.56-8.22,10.26-7.91,21.44c0.16,5.65,1.68,9.32,3.83,11.38   c-2.16-2.05-3.68-5.72-3.84-11.38C268.5,695.99,273.06,689.29,276.73,685.74z"/><path class="st4" d="M289.84,713.19c0.32,0.45,0.71,0.98,1.16,1.58c-0.46-0.6-0.84-1.13-1.17-1.57c-0.69-0.96-1.07-1.53-1.13-1.63   c-0.01-0.01-0.01-0.01-0.01-0.01c-0.23,0.64-0.5,1.25-0.79,1.83c-0.36-0.16-0.69-0.42-0.91-0.79l-5.59-9.11   c-0.58-0.94-0.28-2.17,0.66-2.75s2.17-0.28,2.75,0.66l5.59,9.11C290.96,711.42,290.7,712.59,289.84,713.19z"/><path class="st4" d="M291,714.77c0.56,0.73,1.21,1.56,1.95,2.48C292.2,716.33,291.55,715.5,291,714.77z"/><path class="st4" d="M292.95,717.25c1.31,1.61,2.9,3.48,4.77,5.51C295.84,720.73,294.25,718.86,292.95,717.25z"/><path class="st4" d="M301.13,687.55c0.7,0.85,0.59,2.11-0.26,2.82c-0.38,0.3-0.83,0.45-1.28,0.45c-0.57,0-1.15-0.25-1.54-0.72   c-8.08-9.75-15.86-5.95-15.94-5.91c-0.93,0.48-2.07,0.15-2.61-0.74c0,0-0.01,0,0-0.01c0.06-0.04,0.12-0.08,0.18-0.12   c0.93-0.63,1.52-0.92,1.52-0.92l-0.8-1.83l-0.89-2.03c-1.21-2.77-1.49-5.91-0.52-8.77c0.61-1.79,1.54-3.16,2.64-4.18   c-1.09,1.03-2.02,2.39-2.63,4.18c-0.97,2.86-0.69,6,0.52,8.77l0.89,2.03c0.59-0.28,3.1-1.34,6.67-1.11   C290.62,679.68,295.93,681.27,301.13,687.55z"/><path class="st4" d="M308.56,733.08c1.55,1.29,3.18,2.58,4.89,3.86C311.73,735.67,310.1,734.38,308.56,733.08z"/><path class="st4" d="M314.57,670.23c0.73,0.83,0.65,2.09-0.18,2.82c-0.39,0.34-0.86,0.5-1.33,0.5c-0.56,0-1.11-0.23-1.5-0.68   c-8.31-9.45-17.77-8.3-18.17-8.25c-1.09,0.15-2.1-0.61-2.25-1.71c-0.02-0.14-0.02-0.28-0.01-0.42h0.37c0.98,0.05,1.6,0.15,1.6,0.15   c0.19-0.73,0.39-1.42,0.62-2.06c0.83-2.43,1.93-4.22,3.24-5.5c-1.31,1.29-2.4,3.08-3.23,5.5   C296.67,660.42,306.23,660.73,314.57,670.23z"/><path class="st4" d="M320.27,741.56c2.4,1.48,4.91,2.89,7.54,4.19C325.18,744.45,322.66,743.05,320.27,741.56z"/><path class="st4" d="M329.42,746.51c1.61,0.75,3.26,1.46,4.95,2.12C332.67,747.97,331.02,747.26,329.42,746.51z"/><path class="st4" d="M358.64,753.63c0,0,0.02,0.02,0.05,0.07c-0.04-0.05-0.06-0.07-0.06-0.07H358.64z"/><path class="st4" d="M358.69,753.7c0.05,0.05,0.15,0.17,0.29,0.34C358.84,753.88,358.74,753.76,358.69,753.7z"/><path class="st4" d="M359.13,754.22c0.28,0.33,0.66,0.78,1.14,1.35C359.78,755,359.4,754.55,359.13,754.22z"/><path class="st4" d="M360.27,755.57c1.17,1.37,2.93,3.43,5.21,6.05C363.2,759,361.43,756.94,360.27,755.57z"/><path class="st4" d="M365.62,656.94c-2.74-2.13-6.29-2.59-8.83-2.59h-0.1c-2.61,0.01-5.08,0.68-7.7,1.38   c-0.6,0.16-1.2,0.32-1.81,0.48c-3.15,0.8-6.39,1.43-9.64,1.87c-3.46,0.47-6.19,0.68-8.74,0.68h-0.56c-1.1-0.01-1.99-0.92-1.98-2.02   c0-0.05,0-0.1,0.01-0.15c0.66,0.08,1.32,0.13,1.99,0.17c6.83,0.36,13.99-1.18,19.03-2.64c0.68-0.2,1.32-0.39,1.91-0.58   c0.66-0.21,1.33-0.39,2.01-0.53c4.9-1.08,10.07-0.5,14.57,1.79c0.35,0.18,0.71,0.37,1.07,0.56h0.01c0.57,0.32,1.15,0.65,1.72,1   c-0.04,0.08-0.09,0.16-0.15,0.23C367.75,657.46,366.5,657.62,365.62,656.94z"/><path class="st4" d="M369.28,765.94c0.93,1.04,1.9,2.14,2.93,3.29C371.18,768.08,370.2,766.98,369.28,765.94z"/><path class="st4" d="M378.95,776.66c1.22,1.32,2.47,2.68,3.77,4.08C381.42,779.34,380.16,777.98,378.95,776.66z"/><path class="st4" d="M385.71,783.94c2.72,2.89,5.59,5.9,8.58,8.99C391.29,789.84,388.42,786.83,385.71,783.94z"/><path class="st4" d="M376.32,664.3c-0.79-0.71-0.89-1.91-0.23-2.73h0.01c0.51,0.4,1.03,0.81,1.54,1.23h0.01   c1.1,0.9,2.19,1.82,3.27,2.75c1.08,0.95,2.14,1.91,3.2,2.88c0,0.01,0.01,0,0.01,0c1.05,0.99,2.09,1.98,3.12,2.97   c0.51,0.5,1.02,1,1.52,1.51c4.52,4.5,8.61,9.03,11.85,12.78c0.07,0.08,0.13,0.15,0.2,0.23c0.37,0.43,0.74,0.85,1.13,1.27   c-0.08,0.09-0.18,0.16-0.28,0.22c-0.33,0.19-0.69,0.28-1.04,0.28c-0.68,0-1.33-0.34-1.71-0.96   C396.4,682.59,381.75,669.13,376.32,664.3z"/><path class="st4" d="M447.26,841.51c2.29,1.79,4.59,3.54,6.88,5.24C451.85,845.06,449.55,843.31,447.26,841.51z"/><path class="st4" d="M466.47,855.28c2.26,1.45,4.5,2.82,6.72,4.12C470.97,858.11,468.73,856.73,466.47,855.28z"/><path class="st4" d="M528.39,784.46c-0.4,0.49-0.98,0.75-1.57,0.75c-0.44,0-0.88-0.14-1.24-0.43l-23.09-18.33   c-0.85-0.67-1-1.89-0.36-2.75l1.6,1.18c0.75-0.23,1.5-0.48,2.27-0.75l22.07,17.52C528.94,782.34,529.08,783.59,528.39,784.46z"/><path class="st4" d="M555.08,727.09c3.93-4.05,7.87-8.3,11.8-12.69C562.96,718.79,559.02,723.04,555.08,727.09z"/><path class="st4" d="M569.82,711.08c2.45-2.78,4.88-5.62,7.31-8.49C574.71,705.46,572.27,708.3,569.82,711.08z"/><path class="st4" d="M594.22,681.49c0.54-0.69,1.07-1.38,1.61-2.07c-0.53,0.69-1.06,1.38-1.6,2.07c-1.39,1.78-2.79,3.56-4.2,5.33   C591.43,685.05,592.83,683.27,594.22,681.49z"/><path class="st4" d="M596.16,678.99c0.42-0.54,0.84-1.09,1.26-1.63c-0.42,0.54-0.84,1.09-1.25,1.63c-0.11,0.15-0.22,0.29-0.34,0.43   C595.94,679.28,596.05,679.14,596.16,678.99z"/><path class="st4" d="M601.88,671.51c0.09-0.11,0.18-0.23,0.27-0.35c-0.09,0.12-0.18,0.24-0.26,0.35c-0.17,0.24-0.35,0.47-0.53,0.7   c-0.78,1.03-1.56,2.05-2.35,3.08C599.97,674.03,600.93,672.77,601.88,671.51z"/><path class="st4" d="M609.27,661.64c-1.15,1.56-2.32,3.13-3.5,4.71c1.17-1.58,2.34-3.15,3.49-4.71H609.27z"/><path class="st1" d="M349.2,655.54c-1.08,0-1.97-0.86-2-1.94c-0.02-0.8-0.38-19.71,17.1-31.29c0.92-0.61,2.16-0.36,2.77,0.56   s0.36,2.16-0.56,2.77c-15.57,10.32-15.31,27.67-15.31,27.84c0.03,1.1-0.84,2.02-1.94,2.05   C349.24,655.54,349.22,655.54,349.2,655.54z"/><path class="st1" d="M289.84,713.19l-0.01,0.01c-0.03,0.02-0.06,0.04-0.09,0.06c-0.33,0.21-0.69,0.3-1.04,0.3   c-0.27,0-0.55-0.06-0.8-0.17c-0.36-0.16-0.69-0.42-0.91-0.79l-5.59-9.11c-0.58-0.94-0.28-2.17,0.66-2.75s2.17-0.28,2.75,0.66   l5.59,9.11C290.96,711.42,290.7,712.59,289.84,713.19z"/><path class="st1" d="M300.87,690.37c-0.38,0.3-0.83,0.45-1.28,0.45c-0.57,0-1.15-0.25-1.54-0.72c-8.08-9.75-15.86-5.95-15.94-5.91   c-0.93,0.48-2.07,0.15-2.61-0.74c0,0-0.01,0,0-0.01c-0.03-0.04-0.06-0.08-0.08-0.13c-0.5-0.99-0.11-2.19,0.88-2.69   c0.02-0.01,0.05-0.03,0.1-0.05h0.01c0.59-0.28,3.1-1.34,6.67-1.11c3.54,0.22,8.85,1.81,14.05,8.09   C301.83,688.4,301.72,689.66,300.87,690.37z"/><path class="st1" d="M314.39,673.05c-0.39,0.34-0.86,0.5-1.33,0.5c-0.56,0-1.11-0.23-1.5-0.68c-8.31-9.45-17.77-8.3-18.17-8.25   c-1.09,0.15-2.1-0.61-2.25-1.71c-0.02-0.14-0.02-0.28-0.01-0.42c0-0.01,0-0.01,0-0.01c0.06-0.92,0.75-1.69,1.7-1.82   c0.07-0.01,0.38-0.06,0.89-0.08c0,0,0,0,0.01,0c2.94-0.16,12.5,0.15,20.84,9.65C315.3,671.06,315.22,672.32,314.39,673.05z"/><path class="st1" d="M528.39,784.46c-0.4,0.49-0.98,0.75-1.57,0.75c-0.44,0-0.88-0.14-1.24-0.43l-23.09-18.33   c-0.85-0.67-1-1.89-0.36-2.75c0.01-0.02,0.03-0.04,0.04-0.06c0.69-0.87,1.95-1.01,2.81-0.32l1.02,0.81l22.07,17.52   C528.94,782.34,529.08,783.59,528.39,784.46z"/><path class="st1" d="M368.58,656.36c-0.04,0.08-0.09,0.16-0.15,0.23c-0.68,0.87-1.93,1.03-2.81,0.35   c-2.74-2.13-6.29-2.59-8.83-2.59h-0.1c-2.61,0.01-5.08,0.68-7.7,1.38c-0.6,0.16-1.2,0.32-1.81,0.48c-3.15,0.8-6.39,1.43-9.64,1.87   c-3.46,0.47-6.19,0.68-8.74,0.68h-0.56c-1.1-0.01-1.99-0.92-1.98-2.02c0-0.05,0-0.1,0.01-0.15c0.08-0.99,0.88-1.77,1.87-1.82   c0.04-0.01,0.08-0.01,0.12-0.01h0.03c2.51,0.03,5.2-0.17,8.72-0.64c3.09-0.42,6.19-1.02,9.19-1.78c0.35-0.09,0.69-0.18,1.03-0.28   c0.25-0.06,0.49-0.12,0.73-0.19c1.11-0.3,2.23-0.6,3.38-0.85c1.7-0.38,3.47-0.66,5.34-0.67h0.12c4.5,0,8.4,1.18,11.28,3.43   c0.18,0.14,0.33,0.31,0.45,0.49C368.93,654.89,368.97,655.7,368.58,656.36z"/><path class="st1" d="M401.96,687.19c0,0,0,0.01-0.01,0c-0.08,0.09-0.18,0.16-0.28,0.22c-0.33,0.19-0.69,0.28-1.04,0.28   c-0.68,0-1.33-0.34-1.71-0.96c-2.52-4.14-17.17-17.6-22.6-22.43c-0.79-0.71-0.89-1.91-0.23-2.73h0.01   c0.01-0.03,0.03-0.06,0.06-0.09c0.73-0.82,2-0.9,2.82-0.16c0.18,0.16,0.48,0.43,0.89,0.8c4.2,3.77,19.47,17.61,22.47,22.54   c0.11,0.17,0.18,0.36,0.23,0.54C402.75,685.92,402.52,686.69,401.96,687.19z"/></g><g id="hair"><path class="st1" d="M679.6,324.08c0,10.91,4.44,20.78,11.61,27.9c-8.64,7.08-20.19,10.73-31.29,9.33   c-29.96-3.77-43.17-38.35-52.05-62.76c-3.13-8.61-4.97-20.34-12.7-26.23c-5.47-4.17-13.12-2.64-18.49,0.96   c-1.26,0.84-2.76,2.82-4.35,4.02c5.97-13.68,15.02-26.11,28.47-35.18c55.9-37.73,108.73,9.32,119.92,42.64   c-0.59-0.03-1.18-0.04-1.77-0.04C697.22,284.72,679.6,302.34,679.6,324.08z"/><path class="st1" d="M751.92,130.54c-5.56-1.26-11.37,0.42-15.51,4.34c-24.57,23.3-46.35,58.6-35.92,93.55   c4.17,13.97,15.38,22.3,29.82,22.98c18.04,0.85,33.88-9.58,51.36-12.05c9.72-1.37,21.98-1.58,33.76,2.49   c2.79,0.96,5.8-0.67,6.41-3.55c2.12-10.09,3.05-32.41-22.28-52.39c-3.69-2.91-8.41-4.14-13.05-3.42   c-8.45,1.31-22.64,5.58-35.87,19.26c0,0,7.53-31.73,41.75-37.95c2.88-0.52,4.26-3.84,2.62-6.27   C789.82,149.9,777.38,136.33,751.92,130.54z"/></g><g id="face"><path class="st1" d="M708.88,332.72c-0.66,0-1.31-0.33-1.69-0.93c-0.59-0.93-0.32-2.17,0.61-2.76l20.91-13.33   c0.93-0.59,2.17-0.32,2.76,0.61s0.32,2.17-0.61,2.76l-20.91,13.33C709.62,332.62,709.24,332.72,708.88,332.72z"/><path class="st1" d="M588.88,399.24c-1.09,0-1.98-0.87-2-1.97s0.86-2.01,1.96-2.03c0.07,0,4.18-0.16,6.78-3.15   c1.89-2.17,2.61-5.39,2.13-9.55c-0.12-1.1,0.66-2.09,1.76-2.21c1.09-0.13,2.09,0.66,2.21,1.76c0.61,5.35-0.44,9.62-3.12,12.67   c-3.8,4.33-9.45,4.48-9.69,4.48C588.9,399.24,588.89,399.24,588.88,399.24z"/><path class="st5" d="M587.02,381.4c-3.67,0-7.38-1.58-10.7-4.61c-3.98-3.63-6.93-8.95-8.32-14.99   c-2.94-12.73,2.1-24.81,11.22-26.91c4.56-1.05,9.37,0.47,13.55,4.29c3.98,3.63,6.93,8.95,8.32,14.99   c2.94,12.73-2.1,24.81-11.22,26.91C588.93,381.3,587.98,381.4,587.02,381.4z M582.05,338.57c-0.65,0-1.29,0.07-1.93,0.22   c-6.97,1.61-10.66,11.53-8.22,22.11c1.21,5.26,3.74,9.85,7.12,12.94c3.18,2.9,6.71,4.09,9.95,3.34   c6.97-1.61,10.66-11.53,8.22-22.11c-1.21-5.26-3.74-9.85-7.12-12.94C587.52,339.8,584.73,338.57,582.05,338.57z"/><circle class="st1" cx="580.43" cy="361.61" r="2.96"/><circle class="st0" cx="627.04" cy="368.83" r="8.94"/><path class="st1" d="M717.3,365.39c-1.46,0-2.35-0.08-2.46-0.09c-1.1-0.1-1.91-1.08-1.81-2.18s1.07-1.92,2.17-1.81   c0.15,0.02,9.28,0.76,19.38-3.29c1.03-0.41,2.19,0.09,2.6,1.11s-0.09,2.19-1.11,2.6C728.17,364.91,720.94,365.39,717.3,365.39z"/><ellipse class="st1" cx="585.15" cy="336.9" rx="7.85" ry="13.67" transform="matrix(0.4366 -0.8997 0.8997 0.4366 26.5819 716.253)"/><path class="st5" d="M599.14,356.62c-0.9,0-1.72-0.61-1.94-1.53c-0.26-1.07,0.4-2.15,1.47-2.42l81.94-19.86   c1.07-0.26,2.15,0.4,2.41,1.47s-0.4,2.15-1.47,2.42l-81.94,19.86C599.46,356.6,599.3,356.62,599.14,356.62z"/><path class="st5" d="M561.44,365.11c-0.93,0-1.76-0.65-1.96-1.6c-0.22-1.08,0.47-2.14,1.55-2.36l8.51-1.76   c1.09-0.23,2.14,0.47,2.36,1.55s-0.47,2.14-1.55,2.36l-8.51,1.76C561.71,365.1,561.57,365.11,561.44,365.11z"/></g><g id="computer"><path class="st3" d="M413.92,551.36c0.13,0.92-0.32,1.84-1.13,2.31l-0.18,0.1L101.95,734.49c-1.82,1.05-4.13-0.1-4.37-2.19   L58.12,386.12c-0.17-1.48,0.81-2.85,2.27-3.18l317.6-70.01c1.67-0.37,3.29,0.76,3.52,2.45l9.98,72.63l3.49,25.45l2.29,16.68   l0.31,2.25l0.54,3.93l2.76,20.12l0.36,2.61l0.25,1.84l0.77,5.59l1.31,9.57l1.44,10.46l2.05,14.89l2.66,19.37L413.92,551.36z"/><path class="st2" d="M81.95,404.11l280.53-63.99c1.32-0.3,2.62,0.59,2.8,1.94l27.41,197.8c0.13,0.94-0.33,1.87-1.16,2.33   L119.2,694.72c-1.43,0.8-3.22-0.1-3.42-1.73L80.17,406.65C80.03,405.47,80.79,404.37,81.95,404.11z"/><path class="st6" d="M152.31,598.95l7.23,49c0.36,2.42,3,3.76,5.16,2.62l155.11-81.93c1.33-0.7,2.08-2.18,1.85-3.67l-5.37-35.23   c-0.35-2.3-2.78-3.64-4.91-2.72L154.4,595.18C152.93,595.82,152.08,597.36,152.31,598.95z"/><path class="st3" d="M83.18,432.83c-0.89,0-1.7-0.59-1.93-1.49c-0.28-1.07,0.36-2.16,1.42-2.44l289.12-76.12   c1.07-0.28,2.16,0.36,2.44,1.42s-0.36,2.16-1.42,2.44L83.69,432.76C83.52,432.81,83.35,432.83,83.18,432.83z"/><path class="st0" d="M128.41,452.9c-0.86,0-1.66-0.56-1.92-1.44c-0.31-1.06,0.29-2.17,1.35-2.48l140.39-41.28   c1.06-0.31,2.17,0.29,2.48,1.35s-0.29,2.17-1.35,2.48l-140.39,41.28C128.79,452.88,128.6,452.9,128.41,452.9z"/><path class="st6" d="M131.18,467.43c-0.85,0-1.65-0.55-1.91-1.41c-0.33-1.06,0.27-2.18,1.32-2.5L177.61,449   c1.06-0.32,2.17,0.27,2.5,1.32c0.33,1.06-0.27,2.18-1.32,2.5l-47.02,14.52C131.57,467.4,131.38,467.43,131.18,467.43z"/><path class="st1" d="M194.43,447.9c-0.86,0-1.65-0.55-1.91-1.42c-0.32-1.06,0.27-2.17,1.33-2.5l65.41-20.03   c1.05-0.33,2.17,0.27,2.5,1.33c0.32,1.06-0.27,2.17-1.33,2.5l-65.41,20.03C194.82,447.88,194.63,447.9,194.43,447.9z"/><path class="st1" d="M134.28,480.94c-0.85,0-1.65-0.55-1.91-1.41c-0.33-1.06,0.27-2.18,1.32-2.5l21.68-6.7   c1.06-0.33,2.17,0.27,2.5,1.32c0.33,1.06-0.27,2.18-1.32,2.5l-21.68,6.7C134.67,480.91,134.47,480.94,134.28,480.94z"/><path class="st5" d="M170.09,469.81c-0.85,0-1.64-0.55-1.91-1.4c-0.33-1.05,0.26-2.18,1.31-2.51l93.91-29.44   c1.05-0.33,2.18,0.26,2.51,1.31c0.33,1.05-0.26,2.18-1.31,2.51l-93.91,29.44C170.49,469.78,170.29,469.81,170.09,469.81z"/><path class="st4" d="M138.63,512.41c-0.83,0-1.61-0.53-1.89-1.36c-0.35-1.05,0.21-2.18,1.25-2.54l138.63-46.84   c1.05-0.35,2.18,0.21,2.53,1.25c0.35,1.05-0.21,2.18-1.25,2.53L139.27,512.3C139.06,512.38,138.84,512.41,138.63,512.41z"/><path class="st4" d="M286.22,406.71c-0.87,0-1.66-0.57-1.92-1.44c-0.31-1.06,0.3-2.17,1.36-2.48l48.19-14.08   c1.06-0.31,2.17,0.3,2.48,1.36s-0.3,2.17-1.36,2.48l-48.19,14.08C286.59,406.69,286.4,406.71,286.22,406.71z"/><path class="st7" d="M328.26,656.76"/><path class="st1" d="M98.64,461.96c-0.86,0-1.65-0.55-1.91-1.41c-0.32-1.06,0.27-2.17,1.32-2.5l13.55-4.16   c1.06-0.32,2.17,0.27,2.5,1.32c0.32,1.06-0.27,2.17-1.32,2.5l-13.55,4.16C99.03,461.93,98.84,461.96,98.64,461.96z"/><path class="st0" d="M142.98,528.05c-0.83,0-1.6-0.52-1.89-1.35c-0.36-1.04,0.19-2.18,1.24-2.54l23.31-8.07   c1.04-0.36,2.18,0.19,2.54,1.24c0.36,1.04-0.19,2.18-1.24,2.54l-23.31,8.07C143.42,528.01,143.2,528.05,142.98,528.05z"/><path class="st0" d="M171.92,545.13c-0.81,0-1.58-0.5-1.88-1.31c-0.38-1.04,0.15-2.19,1.18-2.57l36.02-13.33   c1.03-0.38,2.19,0.15,2.57,1.18s-0.15,2.19-1.18,2.57L172.62,545C172.39,545.08,172.15,545.13,171.92,545.13z"/><path class="st1" d="M174.65,562.7c-0.79,0-1.54-0.48-1.86-1.26c-0.41-1.03,0.09-2.19,1.11-2.6l74.25-29.7   c1.03-0.41,2.19,0.09,2.6,1.11c0.41,1.03-0.09,2.19-1.11,2.6l-74.25,29.7C175.15,562.66,174.9,562.7,174.65,562.7z"/><path class="st5" d="M224.29,525.16c-0.81,0-1.57-0.5-1.87-1.3c-0.39-1.03,0.14-2.19,1.17-2.57l45.82-17.13   c1.03-0.39,2.19,0.14,2.57,1.17c0.39,1.03-0.14,2.19-1.17,2.57l-45.82,17.13C224.76,525.11,224.53,525.16,224.29,525.16z"/><path class="st6" d="M293.41,460.1c-0.84,0-1.62-0.53-1.9-1.37c-0.35-1.05,0.21-2.18,1.26-2.53l40.74-13.64   c1.05-0.35,2.18,0.21,2.53,1.26s-0.21,2.18-1.26,2.53L294.05,460C293.84,460.07,293.62,460.1,293.41,460.1z"/><path class="st0" d="M285.63,501.96c-0.81,0-1.58-0.5-1.88-1.3c-0.39-1.04,0.14-2.19,1.18-2.57l51.84-19.3   c1.04-0.39,2.19,0.14,2.57,1.18c0.39,1.04-0.14,2.19-1.18,2.57l-51.84,19.3C286.09,501.92,285.86,501.96,285.63,501.96z"/><path class="st1" d="M108.48,522.47c-0.83,0-1.6-0.52-1.89-1.35c-0.36-1.04,0.19-2.18,1.23-2.54l16.97-5.88   c1.04-0.36,2.18,0.19,2.54,1.23s-0.19,2.18-1.23,2.54l-16.97,5.88C108.92,522.44,108.69,522.47,108.48,522.47z"/><path class="st2" d="M188.62,623.96c-0.33,0-0.66-0.08-0.96-0.24c-0.56-0.31-0.95-0.87-1.03-1.51l-3.21-25.68   c-0.11-0.88,0.37-1.72,1.18-2.08l12.2-5.35c1.01-0.44,2.19,0.02,2.63,1.03s-0.02,2.19-1.03,2.64l-10.83,4.75l2.68,21.44l9.05-4.36   c1-0.48,2.19-0.06,2.67,0.93s0.06,2.19-0.93,2.67l-11.56,5.56C189.22,623.9,188.92,623.96,188.62,623.96z"/><path class="st2" d="M235.9,600.12c-0.72,0-1.42-0.39-1.78-1.08c-0.51-0.98-0.13-2.19,0.85-2.7l9.42-4.9l-2.98-18.26l-10.47,4.71   c-1.01,0.45-2.19,0-2.64-1c-0.45-1.01,0-2.19,1-2.64l12.84-5.78c0.57-0.25,1.22-0.23,1.77,0.06s0.93,0.83,1.03,1.44l3.64,22.26   c0.14,0.85-0.28,1.7-1.05,2.1l-10.7,5.56C236.53,600.05,236.22,600.12,235.9,600.12z"/><path class="st2" d="M213.14,610.62c-0.95,0-1.79-0.68-1.97-1.64l-3.83-21.19c-0.2-1.09,0.53-2.13,1.61-2.32   c1.08-0.2,2.13,0.53,2.32,1.61l3.83,21.19c0.2,1.09-0.53,2.13-1.61,2.32C213.38,610.61,213.26,610.62,213.14,610.62z"/><path class="st2" d="M224.92,605.44c-0.92,0-1.75-0.64-1.95-1.58l-4.62-21.53c-0.23-1.08,0.46-2.14,1.54-2.38   c1.08-0.23,2.14,0.46,2.38,1.54l4.62,21.53c0.23,1.08-0.46,2.14-1.54,2.38C225.2,605.43,225.06,605.44,224.92,605.44z"/><path class="st2" d="M203.1,597.89c-0.75,0-1.48-0.43-1.82-1.16c-0.47-1-0.03-2.19,0.97-2.66l24.26-11.26   c1-0.46,2.19-0.03,2.66,0.97s0.03,2.19-0.97,2.66l-24.26,11.26C203.67,597.83,203.38,597.89,203.1,597.89z"/><path class="st2" d="M205.96,609.18c-0.74,0-1.45-0.41-1.79-1.11c-0.49-0.99-0.08-2.19,0.91-2.68l23.98-11.87   c0.99-0.49,2.19-0.08,2.68,0.91c0.49,0.99,0.08,2.19-0.91,2.68l-23.98,11.87C206.56,609.12,206.26,609.18,205.96,609.18z"/><path class="st2" d="M259.64,577.53c-0.73-0.01-1.44-0.43-1.77-1.14c-0.48-1-0.06-2.19,0.94-2.67l46.33-22.22   c1-0.48,2.19-0.06,2.67,0.94s0.06,2.19-0.94,2.67l-46.33,22.22C260.24,577.47,259.94,577.54,259.64,577.53z"/><circle class="st0" cx="94.67" cy="414.87" r="3.98"/><circle class="st5" cx="109.81" cy="410.9" r="3.98"/><ellipse class="st6" cx="124.96" cy="407.82" rx="3.98" ry="3.98" transform="matrix(0.1414 -0.9899 0.9899 0.1414 -296.4382 473.8454)"/><path class="st0" d="M277.26,422.9c-0.87,0-1.66-0.57-1.92-1.44c-0.31-1.06,0.3-2.17,1.36-2.48l44.78-13.08   c1.06-0.31,2.17,0.3,2.48,1.36s-0.3,2.17-1.36,2.48l-44.78,13.08C277.63,422.87,277.45,422.9,277.26,422.9z"/><path class="st1" d="M181.96,514.76c-0.83,0-1.6-0.52-1.89-1.34c-0.37-1.04,0.18-2.18,1.22-2.55l140.08-49.2   c1.05-0.36,2.18,0.18,2.55,1.22s-0.18,2.18-1.22,2.55l-140.08,49.2C182.4,514.73,182.18,514.76,181.96,514.76z"/><path class="st0" d="M476.19,419.61l-64.32,26.57l-12.18,5.03l-18.64,7.69l-4.75,1.96l-1.79,0.74l-14.8,6.11   c-2.47,1.02-5.24-0.55-5.62-3.2l-6.44-44.21c-0.3-2.01,0.92-3.92,2.86-4.51l22.93-7.01l19-5.81l76.67-23.43   c2.41-0.74,4.92,0.87,5.25,3.37l4.32,32.36C478.93,417.12,477.9,418.9,476.19,419.61z"/><path class="st2" d="M411.09,433.98c-0.08,0-0.15,0-0.23-0.01l-14.15-1.63c-0.62-0.07-1.17-0.43-1.49-0.96   c-0.32-0.54-0.37-1.19-0.14-1.77l5.93-14.81c0.41-1.02,1.57-1.52,2.6-1.11c1.02,0.41,1.52,1.58,1.11,2.6l-4.96,12.38l11.55,1.33   c1.1,0.13,1.88,1.12,1.76,2.22C412.96,433.22,412.1,433.98,411.09,433.98z"/><path class="st2" d="M439.44,424.77c-0.24-0.03-0.48-0.11-0.7-0.24c-0.91-0.53-1.22-1.69-0.69-2.61l6.59-11.34l-10.66-4.63   c-0.97-0.42-1.41-1.54-0.99-2.51s1.54-1.41,2.51-0.99l12.63,5.48c0.5,0.22,0.88,0.64,1.05,1.15c0.17,0.52,0.11,1.08-0.16,1.55   l-7.66,13.2C440.95,424.53,440.18,424.87,439.44,424.77z"/><path class="st2" d="M424.95,433.2c-0.99,0-1.85-0.74-1.98-1.74l-3.81-29.64c-0.14-1.1,0.63-2.1,1.73-2.24   c1.1-0.14,2.1,0.63,2.24,1.73l3.81,29.64c0.14,1.1-0.63,2.1-1.73,2.24C425.12,433.2,425.03,433.2,424.95,433.2z"/></g><g id="clock"><circle class="st5" cx="437.77" cy="198.54" r="72.4"/><path class="st2" d="M458.21,234.48c-0.54,0-1.09-0.22-1.48-0.65L429,203.34c-0.4-0.44-0.58-1.04-0.5-1.63l5.3-37.38   c0.15-1.09,1.16-1.86,2.26-1.7c1.09,0.15,1.85,1.17,1.7,2.26l-5.17,36.45l27.1,29.79c0.74,0.82,0.68,2.08-0.13,2.83   C459.17,234.31,458.69,234.48,458.21,234.48z"/></g><g id="shadow"><polygon class="st1" points="685.22,423.62 683.22,464.52 683.17,464.41 673.93,442.23  "/><polygon class="st1" points="404.23,481.31 380.55,465.62 374.51,461.61 376.3,460.86 381.05,458.9 400.14,451.02 402.72,471.29    403.11,473.89 403.39,475.73  "/></g></svg>